<svg width="451" height="451" viewBox="0 0 451 451" fill="none" xmlns="http://www.w3.org/2000/svg">
<rect width="451" height="451" fill="#E5E5E5"/>
<rect width="451" height="451" fill="#EDD622"/>
<path d="M163.148 391.5H255.148L202.148 245.75L146.398 399H138.398L202.148 223.75L265.898 399H163.148V391.5ZM403.623 367C399.123 378 392.79 386.5 384.623 392.5C376.456 398.5 364.206 401.5 347.873 401.5C327.373 401.5 312.54 395.25 303.373 382.75C294.206 370.083 289.623 350.417 289.623 323.75V299.25C289.623 272.583 294.206 253 303.373 240.5C312.54 227.833 327.373 221.5 347.873 221.5C364.206 221.5 376.456 224.5 384.623 230.5C392.79 236.5 399.123 245 403.623 256L396.873 259.25C393.04 249.583 387.623 242.167 380.623 237C373.623 231.667 362.706 229 347.873 229C339.706 229 332.706 230.083 326.873 232.25C321.04 234.25 315.79 237.75 311.123 242.75C306.456 247.75 302.956 255 300.623 264.5C298.29 273.833 297.123 285.417 297.123 299.25V323.75C297.123 337.583 298.29 349.25 300.623 358.75C302.956 368.083 306.456 375.25 311.123 380.25C315.79 385.25 321.04 388.833 326.873 391C332.706 393 339.706 394 347.873 394C362.706 394 373.623 391.417 380.623 386.25C387.623 380.917 393.04 373.417 396.873 363.75L403.623 367Z" fill="black"/>
<path d="M163.148 391.5V387.5H159.148V391.5H163.148ZM255.148 391.5V395.5H260.859L258.908 390.133L255.148 391.5ZM202.148 245.75L205.908 244.383L202.149 234.047L198.389 244.383L202.148 245.75ZM146.398 399V403H149.2L150.157 400.367L146.398 399ZM138.398 399L134.639 397.633L132.687 403H138.398V399ZM202.148 223.75L205.907 222.383L202.148 212.049L198.389 222.383L202.148 223.75ZM265.898 399V403H271.61L269.657 397.633L265.898 399ZM163.148 399H159.148V403H163.148V399ZM163.148 395.5H255.148V387.5H163.148V395.5ZM258.908 390.133L205.908 244.383L198.389 247.117L251.389 392.867L258.908 390.133ZM198.389 244.383L142.639 397.633L150.157 400.367L205.907 247.117L198.389 244.383ZM146.398 395H138.398V403H146.398V395ZM142.157 400.367L205.907 225.117L198.389 222.383L134.639 397.633L142.157 400.367ZM198.389 225.117L262.139 400.367L269.657 397.633L205.907 222.383L198.389 225.117ZM265.898 395H163.148V403H265.898V395ZM167.148 399V391.5H159.148V399H167.148ZM403.623 367L407.325 368.515L408.751 365.029L405.358 363.396L403.623 367ZM384.623 392.5L382.255 389.276L382.255 389.276L384.623 392.5ZM303.373 382.75L300.133 385.095L300.14 385.105L300.147 385.115L303.373 382.75ZM303.373 240.5L306.599 242.865L306.606 242.855L306.614 242.845L303.373 240.5ZM384.623 230.5L382.255 233.724L382.255 233.724L384.623 230.5ZM403.623 256L405.358 259.604L408.751 257.971L407.325 254.485L403.623 256ZM396.873 259.25L393.155 260.725L394.738 264.717L398.608 262.854L396.873 259.25ZM380.623 237L378.199 240.182L378.223 240.2L378.248 240.218L380.623 237ZM326.873 232.25L328.17 236.034L328.218 236.017L328.266 236L326.873 232.25ZM311.123 242.75L314.047 245.479L314.047 245.479L311.123 242.75ZM300.623 264.5L304.504 265.47L304.506 265.462L304.508 265.454L300.623 264.5ZM300.623 358.75L296.739 359.704L296.74 359.712L296.742 359.72L300.623 358.75ZM311.123 380.25L308.199 382.979L308.199 382.979L311.123 380.25ZM326.873 391L325.48 394.75L325.528 394.767L325.576 394.784L326.873 391ZM380.623 386.25L382.998 389.468L383.023 389.45L383.047 389.432L380.623 386.25ZM396.873 363.75L398.608 360.146L394.738 358.283L393.155 362.275L396.873 363.75ZM399.921 365.485C395.651 375.923 389.732 383.783 382.255 389.276L386.991 395.724C395.847 389.217 402.595 380.077 407.325 368.515L399.921 365.485ZM382.255 389.276C375.081 394.547 363.834 397.5 347.873 397.5V405.5C364.578 405.5 377.832 402.453 386.991 395.724L382.255 389.276ZM347.873 397.5C328.198 397.5 314.781 391.542 306.599 380.385L300.147 385.115C310.299 398.958 326.548 405.5 347.873 405.5V397.5ZM306.614 380.405C298.181 368.753 293.623 350.108 293.623 323.75H285.623C285.623 350.726 290.232 371.414 300.133 385.095L306.614 380.405ZM293.623 323.75V299.25H285.623V323.75H293.623ZM293.623 299.25C293.623 272.885 298.184 254.34 306.599 242.865L300.147 238.135C290.229 251.66 285.623 272.281 285.623 299.25H293.623ZM306.614 242.845C314.803 231.528 328.218 225.5 347.873 225.5V217.5C326.528 217.5 310.276 224.138 300.133 238.155L306.614 242.845ZM347.873 225.5C363.834 225.5 375.081 228.453 382.255 233.724L386.991 227.276C377.832 220.547 364.578 217.5 347.873 217.5V225.5ZM382.255 233.724C389.732 239.217 395.651 247.077 399.921 257.515L407.325 254.485C402.595 242.923 395.847 233.783 386.991 227.276L382.255 233.724ZM401.888 252.396L395.138 255.646L398.608 262.854L405.358 259.604L401.888 252.396ZM400.591 257.775C396.537 247.55 390.709 239.473 382.998 233.782L378.248 240.218C384.537 244.861 389.543 251.616 393.155 260.725L400.591 257.775ZM383.047 233.818C375.015 227.699 363.037 225 347.873 225V233C362.375 233 372.231 235.635 378.199 240.182L383.047 233.818ZM347.873 225C339.371 225 331.874 226.125 325.48 228.5L328.266 236C333.538 234.041 340.041 233 347.873 233V225ZM325.576 228.466C319.056 230.701 313.263 234.594 308.199 240.021L314.047 245.479C318.316 240.906 323.023 237.799 328.17 236.034L325.576 228.466ZM308.199 240.021C302.908 245.69 299.169 253.65 296.739 263.546L304.508 265.454C306.744 256.35 310.005 249.81 314.047 245.479L308.199 240.021ZM296.742 263.53C294.304 273.285 293.123 285.219 293.123 299.25H301.123C301.123 285.614 302.276 274.381 304.504 265.47L296.742 263.53ZM293.123 299.25V323.75H301.123V299.25H293.123ZM293.123 323.75C293.123 337.784 294.304 349.793 296.739 359.704L304.508 357.796C302.275 348.707 301.123 337.383 301.123 323.75H293.123ZM296.742 359.72C299.177 369.459 302.919 377.323 308.199 382.979L314.047 377.521C309.994 373.177 306.736 366.708 304.504 357.78L296.742 359.72ZM308.199 382.979C313.247 388.388 319.008 392.346 325.48 394.75L328.266 387.25C323.071 385.321 318.332 382.112 314.047 377.521L308.199 382.979ZM325.576 394.784C331.937 396.965 339.399 398 347.873 398V390C340.013 390 333.476 389.035 328.17 387.216L325.576 394.784ZM347.873 398C363.019 398 374.975 395.391 382.998 389.468L378.248 383.032C372.271 387.443 362.394 390 347.873 390V398ZM383.047 389.432C390.723 383.583 396.539 375.443 400.591 365.225L393.155 362.275C389.54 371.39 384.523 378.25 378.199 383.068L383.047 389.432ZM395.138 367.354L401.888 370.604L405.358 363.396L398.608 360.146L395.138 367.354Z" fill="black"/>
</svg>
